<?xml version="1.0" ?><svg id="Layer_1" style="enable-background:new 0 0 64 64;" version="1.1" viewBox="0 0 64 64" xml:space="preserve" xmlns="http://www.w3.org/2000/svg" xmlns:xlink="http://www.w3.org/1999/xlink"><style type="text/css">
	.st0{fill:#FFFFFF;}
	.st1{fill:#56AAFF;}
	.st2{fill:#0478ED;}
	.st3{fill:#D9DCE1;}
	.st4{fill:none;stroke:#FFFFFF;stroke-width:2;stroke-miterlimit:10;}
	.st5{fill:none;stroke:#D9DCE1;stroke-width:2;stroke-miterlimit:10;}
	.st6{fill:none;stroke:#FFFFFF;stroke-width:4;stroke-miterlimit:10;}
	.st7{fill:none;stroke:#D9DCE1;stroke-width:2;stroke-linecap:round;stroke-miterlimit:10;}
	.st8{fill:none;stroke:#D9DCE1;stroke-width:2;stroke-linecap:round;stroke-miterlimit:10;stroke-dasharray:0.1039,4.1579;}
	.st9{fill:none;stroke:#D9DCE1;stroke-width:2;stroke-linecap:round;stroke-miterlimit:10;stroke-dasharray:0.1095,4.3795;}
	.st10{fill:none;stroke:#D9DCE1;stroke-width:2;stroke-linecap:round;stroke-miterlimit:10;stroke-dasharray:0.1094,4.374;}
	.st11{fill:none;stroke:#D9DCE1;stroke-width:2;stroke-linecap:round;stroke-miterlimit:10;stroke-dasharray:0.1059,4.2342;}
	.st12{fill:none;stroke:#D9DCE1;stroke-width:2;stroke-linecap:round;stroke-miterlimit:10;stroke-dasharray:0.1084,4.3347;}
	.st13{fill:none;stroke:#D9DCE1;stroke-width:2;stroke-linecap:round;stroke-miterlimit:10;stroke-dasharray:0.1093,4.3738;}
	.st14{fill:none;stroke:#D9DCE1;stroke-width:2;stroke-linecap:round;stroke-linejoin:round;stroke-miterlimit:10;}
	.st15{fill:none;stroke:#0478ED;stroke-width:3;stroke-linecap:round;stroke-miterlimit:10;stroke-dasharray:0.1017,6.1045;}
	.st16{fill-rule:evenodd;clip-rule:evenodd;fill:#D9DCE1;}
	.st17{fill-rule:evenodd;clip-rule:evenodd;fill:#56AAFF;}
	.st18{fill-rule:evenodd;clip-rule:evenodd;fill:#0478ED;}
	.st19{fill:none;stroke:#56AAFF;stroke-width:2;stroke-miterlimit:10;}
	.st20{fill:none;stroke:#56AAFF;stroke-width:2;stroke-linecap:round;stroke-linejoin:round;stroke-miterlimit:10;}
	.st21{fill:none;stroke:#FFFFFF;stroke-width:2;stroke-linejoin:round;stroke-miterlimit:10;}
	.st22{fill:none;stroke:#56AAFF;stroke-width:3;stroke-miterlimit:10;}
	.st23{fill:none;stroke:#0478ED;stroke-width:3;stroke-miterlimit:10;}
	.st24{fill:none;stroke:#0478ED;stroke-width:3;stroke-linecap:round;stroke-miterlimit:10;}
	.st25{fill:none;stroke:#FFFFFF;stroke-width:10.5;stroke-linecap:round;stroke-miterlimit:10;}
	.st26{fill:none;stroke:#56AAFF;stroke-width:10.5;stroke-linecap:round;stroke-miterlimit:10;}
	.st27{fill:none;stroke:#56AAFF;stroke-width:2;stroke-miterlimit:10;stroke-dasharray:2,2;}
	.st28{fill:none;stroke:#D9DCE1;stroke-width:4;stroke-miterlimit:10;}
	.st29{fill:none;stroke:#D9DCE1;stroke-width:4;stroke-miterlimit:10;stroke-dasharray:10.4,7.8;}
	.st30{fill:none;stroke:#D9DCE1;stroke-width:4;stroke-linecap:square;stroke-miterlimit:10;}
	.st31{fill:none;stroke:#D9DCE1;stroke-width:3;stroke-miterlimit:10;}
	.st32{fill:none;stroke:#56AAFF;stroke-width:3;stroke-linecap:square;stroke-linejoin:round;stroke-miterlimit:10;}
	.st33{fill:none;stroke:#D9DCE1;stroke-width:3;stroke-miterlimit:10;stroke-dasharray:6;}
	.st34{fill:none;stroke:#0478ED;stroke-width:2;stroke-miterlimit:10;}
	.st35{fill:none;stroke:#D9DCE1;stroke-width:3;stroke-linecap:square;stroke-miterlimit:10;}
	.st36{fill:none;stroke:#D9DCE1;stroke-width:3;stroke-linecap:square;stroke-miterlimit:10;stroke-dasharray:6,6;}
	.st37{fill:none;stroke:#56AAFF;stroke-width:6;stroke-miterlimit:10;}
	.st38{fill:none;stroke:#D9DCE1;stroke-width:6;stroke-linecap:square;stroke-miterlimit:10;}
	.st39{opacity:0.4;fill:#0478ED;}
	.st40{opacity:0.2;fill:#0478ED;}
	.st41{opacity:0.2;fill:#FFFFFF;}
	.st42{fill:none;stroke:#0478ED;stroke-width:2;stroke-linecap:square;stroke-miterlimit:10;}
	.st43{fill:none;stroke:#FFFFFF;stroke-width:2;stroke-miterlimit:10;stroke-dasharray:2,2;}
</style><rect class="st2" height="7" width="8" x="28" y="47"/><path class="st3" d="M56,41H8V14c0-1.1,0.9-2,2-2h44c1.1,0,2,0.9,2,2V41z"/><path class="st1" d="M56,41H8v5c0,1.1,0.9,2,2,2h44c1.1,0,2-0.9,2-2V41z"/><path class="st1" d="M40,53H24c-1.1,0-2,0.9-2,2v1h20v-1C42,53.9,41.1,53,40,53z"/><path class="st0" d="M40,11.8L40,11.8l-7.7-3.1c-0.3-0.1-0.6-0.1-0.8,0l-7.6,3c-0.3,0.1-0.5,0.4-0.5,0.7l0,9.1  c0,0.3,0.2,0.6,0.5,0.7l7.7,3l0,0c0.1,0.1,0.3,0.1,0.4,0.1l0-9.5c0-0.3,0.2-0.6,0.5-0.7l7.9-3.1C40.3,11.9,40.2,11.9,40,11.8z"/><path class="st2" d="M40,11.8L40,11.8l-7.7-3.1c-0.3-0.1-0.6-0.1-0.8,0l-7.6,3c-0.1,0-0.2,0.1-0.3,0.2l8.5,3.4c0,0,0.2-0.2,0.3-0.2  l7.9-3.1C40.3,11.9,40.2,11.9,40,11.8z"/><path class="st1" d="M40.5,12.5c0-0.2-0.1-0.3-0.2-0.4l-7.9,3.1c-0.3,0.1-0.5,0.4-0.5,0.7v9.5c0.1,0,0.3,0,0.4-0.1l0,0l7.6-3  c0.3-0.1,0.5-0.4,0.5-0.7L40.5,12.5L40.5,12.5z"/></svg>