<svg id="svg" version="1.1" xmlns="http://www.w3.org/2000/svg" xmlns:xlink="http://www.w3.org/1999/xlink" width="400" height="400" viewBox="0, 0, 400,400"><g id="svgg"><path id="path0" d="M0.000 200.000 L 0.000 400.000 200.000 400.000 L 400.000 400.000 400.000 200.000 L 400.000 0.000 200.000 0.000 L 0.000 0.000 0.000 200.000 M390.720 9.680 C 391.552 10.512,391.404 389.739,390.571 390.571 C 389.739 391.404,10.512 391.552,9.680 390.720 C 9.155 390.195,8.943 9.991,9.467 9.467 C 9.991 8.943,390.195 9.155,390.720 9.680 M102.834 37.893 C 101.486 37.988,100.294 38.340,99.680 38.823 C 99.137 39.250,98.384 39.600,98.008 39.600 C 97.632 39.600,96.998 39.960,96.600 40.400 C 96.202 40.840,95.679 41.200,95.437 41.200 C 94.355 41.200,90.901 45.070,89.762 47.558 C 89.420 48.305,88.908 49.149,88.624 49.433 C 88.341 49.716,87.979 51.265,87.820 52.874 C 87.662 54.483,87.322 56.053,87.066 56.361 C 86.275 57.315,86.192 342.405,86.983 344.845 C 87.311 345.859,87.698 347.749,87.843 349.045 C 87.988 350.340,88.326 351.670,88.595 352.000 C 88.863 352.330,89.346 353.140,89.668 353.800 C 89.990 354.460,90.511 355.438,90.826 355.973 C 91.547 357.195,94.661 360.400,95.127 360.400 C 95.319 360.400,95.787 360.744,96.167 361.164 C 96.548 361.584,97.341 362.048,97.929 362.195 C 98.518 362.342,99.270 362.694,99.600 362.978 C 99.930 363.261,101.333 363.605,102.718 363.742 C 104.104 363.879,105.609 364.191,106.064 364.434 C 106.519 364.678,107.456 364.775,108.146 364.651 C 108.835 364.527,110.840 364.170,112.600 363.857 C 116.249 363.208,119.545 361.629,121.693 359.500 C 122.082 359.115,122.580 358.800,122.800 358.800 C 123.020 358.800,123.200 358.530,123.200 358.200 C 123.200 357.870,123.348 357.600,123.529 357.600 C 123.904 357.600,126.000 354.517,126.000 353.964 C 126.000 353.764,126.322 353.278,126.716 352.884 C 127.154 352.446,127.610 351.015,127.893 349.192 C 128.146 347.555,128.544 346.152,128.777 346.074 C 129.072 345.976,129.200 326.811,129.200 282.647 C 129.200 233.957,129.311 219.249,129.680 218.880 C 130.049 218.511,144.773 218.400,193.517 218.400 C 256.268 218.400,256.884 218.392,257.891 217.600 C 258.450 217.160,259.309 216.800,259.800 216.800 C 260.291 216.800,261.150 216.440,261.709 216.000 C 262.269 215.560,262.848 215.200,262.998 215.200 C 263.271 215.200,265.704 213.056,266.547 212.072 C 266.796 211.781,267.315 211.246,267.700 210.883 C 268.085 210.520,268.400 210.066,268.400 209.874 C 268.400 209.683,268.760 209.069,269.200 208.509 C 269.640 207.950,270.000 207.036,270.000 206.478 C 270.000 205.920,270.283 205.151,270.628 204.769 C 271.540 203.761,271.546 195.630,270.636 194.330 C 270.286 193.831,270.000 192.950,270.000 192.373 C 270.000 191.796,269.640 190.998,269.200 190.600 C 268.760 190.202,268.400 189.545,268.400 189.141 C 268.400 188.737,268.040 188.182,267.600 187.907 C 267.160 187.632,266.800 187.279,266.800 187.122 C 266.800 186.746,264.848 184.800,264.471 184.800 C 264.310 184.800,263.870 184.440,263.493 184.000 C 263.116 183.560,262.455 183.200,262.024 183.200 C 261.593 183.200,261.090 182.932,260.906 182.604 C 260.723 182.276,259.726 181.850,258.691 181.656 C 257.655 181.463,256.509 181.056,256.143 180.752 C 255.585 180.290,245.256 180.168,192.439 180.000 L 129.400 179.800 129.298 128.443 C 129.224 90.821,129.317 76.940,129.647 76.543 C 130.024 76.089,144.027 76.000,215.203 76.000 C 289.918 76.000,300.448 75.927,301.454 75.402 C 302.084 75.074,303.521 74.804,304.646 74.802 C 306.084 74.801,306.995 74.562,307.709 74.000 C 308.269 73.560,309.039 73.200,309.421 73.200 C 310.198 73.200,310.722 72.769,314.300 69.179 C 315.675 67.800,316.800 66.365,316.800 65.990 C 316.800 65.615,317.137 64.879,317.549 64.354 C 318.896 62.639,318.936 50.341,317.600 48.800 C 317.160 48.293,316.800 47.532,316.800 47.110 C 316.800 46.100,310.294 39.600,309.283 39.600 C 308.856 39.600,307.993 39.195,307.364 38.700 L 306.220 37.800 205.610 37.769 C 150.274 37.753,104.025 37.808,102.834 37.893 " stroke="none" fill="#131313" fill-rule="evenodd"></path><path id="path1" d="M10.000 200.000 L 10.000 390.000 200.000 390.000 L 390.000 390.000 390.000 200.000 L 390.000 10.000 200.000 10.000 L 10.000 10.000 10.000 200.000 M304.439 36.254 C 304.747 36.503,305.630 36.829,306.400 36.976 C 311.757 38.005,318.271 44.356,319.405 49.658 C 319.563 50.396,319.897 51.253,320.146 51.561 C 320.903 52.498,320.692 61.144,319.877 62.600 C 319.507 63.260,319.204 64.177,319.202 64.639 C 319.201 65.100,318.840 65.893,318.400 66.400 C 317.960 66.907,317.599 67.520,317.598 67.761 C 317.594 68.371,313.829 72.400,313.262 72.400 C 313.008 72.400,312.800 72.565,312.800 72.766 C 312.800 73.231,309.397 75.145,308.033 75.447 C 307.465 75.572,306.370 75.973,305.600 76.338 C 304.312 76.947,297.221 77.009,217.300 77.106 L 130.400 77.212 130.400 127.988 L 130.400 178.763 193.700 178.882 L 257.000 179.000 258.800 179.838 C 264.204 182.355,264.628 182.628,267.171 185.235 C 269.423 187.543,269.949 188.359,271.534 192.000 C 273.015 195.401,272.940 205.123,271.417 207.298 C 271.077 207.782,270.800 208.420,270.800 208.716 C 270.800 210.417,265.479 215.745,261.995 217.532 C 256.163 220.523,259.486 220.389,191.312 220.395 L 130.423 220.400 130.312 284.500 C 130.209 343.496,130.147 348.711,129.530 350.000 C 129.161 350.770,128.742 351.984,128.599 352.698 C 128.455 353.411,128.123 354.131,127.860 354.298 C 127.598 354.464,127.166 355.095,126.900 355.700 C 126.635 356.305,126.233 356.800,126.009 356.800 C 125.784 356.800,125.600 357.019,125.600 357.286 C 125.600 357.940,121.965 361.600,121.315 361.600 C 121.032 361.600,120.800 361.784,120.800 362.009 C 120.800 362.233,120.305 362.628,119.700 362.886 C 119.095 363.144,118.330 363.563,118.000 363.817 C 115.578 365.681,104.679 366.797,101.990 365.455 C 101.340 365.131,100.221 364.737,99.504 364.581 C 98.787 364.424,97.771 363.959,97.246 363.548 C 96.721 363.137,96.106 362.800,95.880 362.800 C 95.427 362.800,95.139 362.552,92.200 359.628 C 89.243 356.685,87.205 353.691,87.198 352.279 C 87.196 352.015,86.881 351.260,86.498 350.600 C 85.413 348.734,85.413 52.866,86.498 51.000 C 86.881 50.340,87.196 49.585,87.198 49.321 C 87.200 48.773,88.863 45.547,89.560 44.740 C 93.351 40.341,97.011 37.733,100.416 37.004 C 101.177 36.841,101.980 36.566,102.200 36.392 C 102.420 36.219,103.050 35.993,103.600 35.891 C 105.987 35.447,303.883 35.805,304.439 36.254 " stroke="none" fill="#b3b3b3" fill-rule="evenodd"></path><path id="path2" d="M9.680 9.680 C 9.308 10.052,9.222 52.809,9.299 200.180 L 9.399 390.200 9.599 200.000 L 9.800 9.800 200.000 9.599 L 390.200 9.399 200.180 9.299 C 52.809 9.222,10.052 9.308,9.680 9.680 M390.598 200.000 C 390.598 304.610,390.644 347.405,390.700 295.100 C 390.756 242.795,390.756 157.205,390.700 104.900 C 390.644 52.595,390.598 95.390,390.598 200.000 M104.600 36.820 C 103.811 37.035,104.222 37.070,105.800 36.923 C 107.120 36.800,108.275 36.632,108.367 36.550 C 108.664 36.282,105.834 36.485,104.600 36.820 M299.800 36.823 C 300.680 37.005,301.850 37.143,302.400 37.130 C 303.988 37.091,301.365 36.495,299.600 36.493 L 298.200 36.492 299.800 36.823 M310.800 39.664 C 312.726 41.595,316.032 44.398,314.800 43.055 C 314.030 42.216,312.680 40.974,311.800 40.296 C 310.920 39.618,310.470 39.333,310.800 39.664 M93.161 41.714 C 91.846 42.836,88.800 46.734,88.800 47.296 C 88.800 47.529,89.325 46.939,89.966 45.984 C 90.608 45.029,91.897 43.472,92.831 42.524 C 94.672 40.656,94.815 40.304,93.161 41.714 M86.831 52.831 C 86.547 53.940,86.390 54.923,86.483 55.017 C 86.576 55.110,86.885 54.278,87.169 53.169 C 87.453 52.060,87.610 51.077,87.517 50.983 C 87.424 50.890,87.115 51.722,86.831 52.831 M319.378 56.800 C 319.382 60.703,319.407 60.838,319.735 58.706 C 319.941 57.370,319.940 55.618,319.732 54.506 C 319.424 52.865,319.375 53.185,319.378 56.800 M86.093 57.200 C 86.093 57.970,86.175 58.285,86.276 57.900 C 86.376 57.515,86.376 56.885,86.276 56.500 C 86.175 56.115,86.093 56.430,86.093 57.200 M317.600 65.731 C 317.044 66.878,315.358 69.036,313.800 70.594 C 312.226 72.169,311.701 72.842,312.600 72.133 C 315.515 69.833,319.459 64.522,318.765 63.833 C 318.674 63.743,318.150 64.597,317.600 65.731 M303.600 75.600 C 303.270 75.813,302.550 76.011,302.000 76.040 C 301.364 76.074,301.245 76.157,301.673 76.271 C 302.043 76.368,303.123 76.176,304.073 75.843 C 305.023 75.510,305.440 75.232,305.000 75.225 C 304.560 75.218,303.930 75.387,303.600 75.600 M172.700 76.700 C 196.075 76.757,234.325 76.757,257.700 76.700 C 281.075 76.643,261.950 76.596,215.200 76.596 C 168.450 76.596,149.325 76.643,172.700 76.700 M129.726 178.369 C 129.767 178.901,130.070 179.410,130.400 179.499 C 130.796 179.606,130.846 179.549,130.546 179.330 C 130.297 179.149,129.993 178.640,129.872 178.200 C 129.699 177.569,129.668 177.605,129.726 178.369 M254.500 179.876 C 254.885 179.976,255.515 179.976,255.900 179.876 C 256.285 179.775,255.970 179.693,255.200 179.693 C 254.430 179.693,254.115 179.775,254.500 179.876 M257.600 180.600 C 258.150 180.914,258.870 181.171,259.200 181.170 C 259.530 181.169,259.194 180.906,258.454 180.584 C 256.751 179.845,256.294 179.853,257.600 180.600 M261.200 181.792 C 261.200 181.883,262.187 182.612,263.394 183.413 C 264.600 184.214,266.062 185.439,266.643 186.135 C 267.224 186.831,267.992 187.556,268.350 187.746 C 269.612 188.417,264.179 183.383,262.700 182.511 C 261.875 182.025,261.200 181.701,261.200 181.792 M268.814 188.400 C 268.808 188.510,269.253 189.486,269.802 190.568 C 270.351 191.650,270.799 192.280,270.798 191.968 C 270.796 191.452,268.839 187.933,268.814 188.400 M269.500 209.014 C 268.501 210.350,268.631 210.723,269.646 209.433 C 270.111 208.842,270.426 208.295,270.346 208.218 C 270.266 208.141,269.885 208.500,269.500 209.014 M266.187 213.271 C 264.874 214.630,264.367 215.286,265.060 214.730 C 266.287 213.745,269.037 210.800,268.729 210.800 C 268.644 210.800,267.501 211.912,266.187 213.271 M262.180 216.352 C 261.971 216.545,261.128 216.918,260.306 217.181 C 259.484 217.443,258.719 217.808,258.606 217.990 C 258.318 218.457,261.902 217.058,262.483 216.477 C 263.029 215.931,262.756 215.818,262.180 216.352 M251.891 219.089 C 252.601 219.177,253.861 219.179,254.691 219.092 C 255.521 219.005,254.940 218.933,253.400 218.931 C 251.860 218.929,251.181 219.000,251.891 219.089 M129.790 220.030 C 129.646 220.487,129.633 220.967,129.763 221.097 C 129.894 221.227,130.000 221.042,130.000 220.687 C 130.000 220.331,130.315 219.856,130.700 219.632 C 131.339 219.260,131.341 219.223,130.727 219.212 C 130.357 219.205,129.935 219.574,129.790 220.030 M86.093 344.800 C 86.093 345.570,86.175 345.885,86.276 345.500 C 86.376 345.115,86.376 344.485,86.276 344.100 C 86.175 343.715,86.093 344.030,86.093 344.800 M86.433 346.800 C 86.421 347.130,86.667 348.210,86.979 349.200 C 87.291 350.190,87.556 350.730,87.567 350.400 C 87.579 350.070,87.333 348.990,87.021 348.000 C 86.709 347.010,86.444 346.470,86.433 346.800 M127.158 353.339 C 126.805 353.813,126.388 354.605,126.231 355.100 C 126.074 355.595,125.797 356.000,125.616 356.000 C 125.434 356.000,125.169 356.305,125.026 356.678 C 124.795 357.277,124.858 357.271,125.573 356.625 C 126.016 356.223,126.495 355.513,126.637 355.047 C 126.779 354.581,127.172 353.884,127.512 353.498 C 127.851 353.111,128.055 352.724,127.964 352.637 C 127.874 352.550,127.511 352.866,127.158 353.339 M88.800 354.283 C 88.800 355.123,92.337 359.231,94.442 360.838 C 95.629 361.743,96.060 362.000,95.400 361.408 C 92.351 358.676,91.131 357.382,90.009 355.689 C 89.344 354.685,88.800 354.052,88.800 354.283 M117.000 363.200 C 115.436 364.236,115.992 364.237,117.690 363.201 C 118.411 362.762,118.820 362.404,118.600 362.404 C 118.380 362.405,117.660 362.763,117.000 363.200 M103.000 364.800 C 103.440 364.989,104.070 365.144,104.400 365.144 C 104.778 365.144,104.704 365.017,104.200 364.800 C 103.760 364.611,103.130 364.456,102.800 364.456 C 102.422 364.456,102.496 364.583,103.000 364.800 M111.600 364.800 C 110.796 365.057,110.757 365.123,111.400 365.132 C 111.840 365.138,112.560 364.989,113.000 364.800 C 114.019 364.362,112.968 364.362,111.600 364.800 M106.291 365.489 C 107.001 365.577,108.261 365.579,109.091 365.492 C 109.921 365.405,109.340 365.333,107.800 365.331 C 106.260 365.329,105.581 365.400,106.291 365.489 M104.900 390.700 C 157.205 390.756,242.795 390.756,295.100 390.700 C 347.405 390.644,304.610 390.598,200.000 390.598 C 95.390 390.598,52.595 390.644,104.900 390.700 " stroke="none" fill="#5c5c5c" fill-rule="evenodd"></path><path id="path3" d="M9.867 9.867 C 9.720 10.013,9.600 95.693,9.600 200.267 L 9.600 390.400 200.000 390.400 L 390.400 390.400 390.400 200.000 L 390.400 9.600 200.267 9.600 C 95.693 9.600,10.013 9.720,9.867 9.867 M390.000 200.000 L 390.000 390.000 200.000 390.000 L 10.000 390.000 10.000 200.000 L 10.000 10.000 200.000 10.000 L 390.000 10.000 390.000 200.000 M103.600 35.891 C 103.050 35.993,102.420 36.219,102.200 36.392 C 101.980 36.566,101.177 36.841,100.416 37.004 C 97.011 37.733,93.351 40.341,89.560 44.740 C 88.863 45.547,87.200 48.773,87.198 49.321 C 87.196 49.585,86.881 50.340,86.498 51.000 C 85.413 52.866,85.413 348.734,86.498 350.600 C 86.881 351.260,87.196 352.015,87.198 352.279 C 87.205 353.691,89.243 356.685,92.200 359.628 C 95.139 362.552,95.427 362.800,95.880 362.800 C 96.106 362.800,96.721 363.137,97.246 363.548 C 97.771 363.959,98.787 364.424,99.504 364.581 C 100.221 364.737,101.340 365.131,101.990 365.455 C 104.679 366.797,115.578 365.681,118.000 363.817 C 118.330 363.563,119.095 363.144,119.700 362.886 C 120.305 362.628,120.800 362.233,120.800 362.009 C 120.800 361.784,121.032 361.600,121.315 361.600 C 121.965 361.600,125.600 357.940,125.600 357.286 C 125.600 357.019,125.784 356.800,126.009 356.800 C 126.233 356.800,126.635 356.305,126.900 355.700 C 127.166 355.095,127.598 354.464,127.860 354.298 C 128.123 354.131,128.455 353.411,128.599 352.698 C 128.742 351.984,129.161 350.770,129.530 350.000 C 130.147 348.711,130.209 343.496,130.312 284.500 L 130.423 220.400 191.312 220.395 C 259.486 220.389,256.163 220.523,261.995 217.532 C 265.479 215.745,270.800 210.417,270.800 208.716 C 270.800 208.420,271.077 207.782,271.417 207.298 C 272.940 205.123,273.015 195.401,271.534 192.000 C 269.949 188.359,269.423 187.543,267.171 185.235 C 264.628 182.628,264.204 182.355,258.800 179.838 L 257.000 179.000 193.700 178.882 L 130.400 178.763 130.400 127.988 L 130.400 77.212 217.300 77.106 C 297.221 77.009,304.312 76.947,305.600 76.338 C 306.370 75.973,307.465 75.572,308.033 75.447 C 309.397 75.145,312.800 73.231,312.800 72.766 C 312.800 72.565,313.008 72.400,313.262 72.400 C 313.829 72.400,317.594 68.371,317.598 67.761 C 317.599 67.520,317.960 66.907,318.400 66.400 C 318.840 65.893,319.201 65.100,319.202 64.639 C 319.204 64.177,319.507 63.260,319.877 62.600 C 320.692 61.144,320.903 52.498,320.146 51.561 C 319.897 51.253,319.563 50.396,319.405 49.658 C 318.271 44.356,311.757 38.005,306.400 36.976 C 305.630 36.829,304.747 36.503,304.439 36.254 C 303.883 35.805,105.987 35.447,103.600 35.891 M303.569 37.016 C 314.837 39.040,321.464 48.833,319.429 60.456 C 317.821 69.648,312.298 74.531,301.400 76.399 C 300.300 76.587,261.293 76.755,214.718 76.771 L 130.036 76.800 129.802 78.100 C 129.209 81.396,129.785 178.820,130.400 179.209 C 130.771 179.443,154.796 179.590,193.452 179.594 L 255.905 179.600 258.615 180.620 C 276.344 187.293,276.943 210.011,259.600 217.984 L 257.400 218.996 194.120 219.198 C 142.945 219.361,130.740 219.499,130.320 219.920 C 129.899 220.340,129.762 232.615,129.600 284.120 C 129.385 352.698,129.431 351.224,127.406 353.600 C 127.125 353.930,126.769 354.613,126.615 355.118 C 126.144 356.660,120.691 361.764,118.226 362.970 C 110.131 366.930,101.090 366.084,94.242 360.724 C 92.278 359.186,88.800 355.070,88.800 354.283 C 88.800 354.052,88.563 353.579,88.273 353.231 C 87.983 352.884,87.346 350.890,86.857 348.800 L 85.968 345.000 86.107 199.600 C 86.260 40.153,86.108 50.532,88.330 48.310 C 88.588 48.052,88.800 47.628,88.800 47.368 C 88.800 44.309,96.705 38.474,102.600 37.182 C 107.227 36.167,297.967 36.010,303.569 37.016 " stroke="none" fill="#7c7c7c" fill-rule="evenodd"></path><path id="path4" d="M390.300 9.599 C 391.018 10.404,391.038 389.602,390.320 390.320 C 389.602 391.038,10.404 391.018,9.599 390.300 C 9.122 389.875,9.118 389.904,9.568 390.500 C 10.346 391.527,389.544 391.598,390.571 390.571 C 391.598 389.544,391.527 10.346,390.500 9.568 C 389.904 9.118,389.875 9.122,390.300 9.599 M104.200 37.205 C 100.231 37.848,97.160 38.928,95.724 40.184 C 95.462 40.413,94.652 41.031,93.924 41.558 C 91.503 43.308,87.604 49.047,87.596 50.871 C 87.593 51.382,87.323 52.684,86.996 53.764 C 86.668 54.844,86.421 56.284,86.446 56.964 C 86.478 57.813,86.554 57.949,86.689 57.400 C 86.798 56.960,87.031 56.420,87.209 56.200 C 87.387 55.980,87.662 54.483,87.820 52.874 C 87.979 51.265,88.341 49.716,88.624 49.433 C 88.908 49.149,89.420 48.305,89.762 47.558 C 90.901 45.070,94.355 41.200,95.437 41.200 C 95.679 41.200,96.202 40.840,96.600 40.400 C 96.998 39.960,97.632 39.600,98.008 39.600 C 98.384 39.600,99.207 39.195,99.836 38.700 L 100.980 37.800 203.600 37.800 L 306.220 37.800 307.364 38.700 C 307.993 39.195,308.856 39.600,309.283 39.600 C 310.294 39.600,316.800 46.100,316.800 47.110 C 316.800 47.532,317.160 48.293,317.600 48.800 C 318.936 50.341,318.896 62.639,317.549 64.354 C 317.137 64.879,316.800 65.615,316.800 65.990 C 316.800 66.365,315.675 67.800,314.300 69.179 C 310.722 72.769,310.198 73.200,309.421 73.200 C 309.039 73.200,308.269 73.560,307.709 74.000 C 306.306 75.104,307.134 75.001,309.590 73.767 C 312.149 72.482,315.884 68.845,317.360 66.200 C 319.733 61.950,320.084 51.379,317.954 48.316 C 317.539 47.720,317.200 46.939,317.200 46.580 C 317.200 45.726,310.594 39.200,309.729 39.200 C 309.363 39.200,308.731 38.900,308.326 38.533 C 306.286 36.687,306.359 36.688,204.400 36.587 C 114.115 36.497,108.347 36.532,104.200 37.205 M86.196 202.200 C 86.200 337.583,86.240 345.914,86.896 347.800 C 87.278 348.900,87.593 350.218,87.596 350.729 C 87.608 353.430,95.025 362.400,97.245 362.400 C 97.516 362.400,98.021 362.650,98.369 362.956 C 101.601 365.800,111.709 365.680,117.927 362.725 C 120.967 361.279,126.400 356.102,126.400 354.650 C 126.400 354.437,126.692 353.940,127.049 353.546 C 128.029 352.463,129.604 346.000,128.889 346.000 C 128.408 346.000,128.118 347.054,127.758 350.117 C 127.611 351.373,127.326 352.400,127.126 352.400 C 126.925 352.400,126.538 352.895,126.265 353.500 C 125.437 355.336,123.943 357.600,123.560 357.600 C 123.362 357.600,123.200 357.870,123.200 358.200 C 123.200 358.530,123.020 358.800,122.800 358.800 C 122.580 358.800,122.082 359.115,121.693 359.500 C 119.545 361.629,116.249 363.208,112.600 363.857 C 110.840 364.170,108.835 364.527,108.146 364.651 C 107.456 364.775,106.519 364.678,106.064 364.434 C 105.609 364.191,104.104 363.879,102.718 363.742 C 101.333 363.605,99.930 363.261,99.600 362.978 C 99.270 362.694,98.518 362.342,97.929 362.195 C 97.341 362.048,96.548 361.584,96.167 361.164 C 95.787 360.744,95.319 360.400,95.127 360.400 C 94.661 360.400,91.547 357.195,90.826 355.973 C 90.511 355.438,89.990 354.460,89.668 353.800 C 89.346 353.140,88.862 352.330,88.592 352.000 C 88.322 351.670,87.975 350.239,87.822 348.820 C 87.668 347.400,87.330 345.870,87.071 345.420 C 86.713 344.797,86.551 310.262,86.396 201.600 L 86.193 58.600 86.196 202.200 M301.454 75.402 C 300.448 75.927,289.918 76.000,215.203 76.000 C 144.027 76.000,130.024 76.089,129.647 76.543 C 129.317 76.940,129.224 90.821,129.298 128.443 L 129.400 179.800 192.439 180.000 C 245.256 180.168,255.585 180.290,256.143 180.752 C 256.509 181.056,257.655 181.463,258.691 181.656 C 259.726 181.850,260.723 182.276,260.906 182.604 C 261.090 182.932,261.593 183.200,262.024 183.200 C 262.455 183.200,263.116 183.560,263.493 184.000 C 263.870 184.440,264.310 184.800,264.471 184.800 C 264.848 184.800,266.800 186.746,266.800 187.122 C 266.800 187.279,267.160 187.632,267.600 187.907 C 268.040 188.182,268.400 188.737,268.400 189.141 C 268.400 189.545,268.760 190.202,269.200 190.600 C 269.640 190.998,270.000 191.796,270.000 192.373 C 270.000 192.950,270.286 193.831,270.636 194.330 C 271.546 195.630,271.540 203.761,270.628 204.769 C 270.283 205.151,270.000 205.920,270.000 206.478 C 270.000 207.036,269.640 207.950,269.200 208.509 C 268.760 209.069,268.400 209.683,268.400 209.874 C 268.400 210.066,268.085 210.520,267.700 210.883 C 267.315 211.246,266.796 211.781,266.547 212.072 C 265.704 213.056,263.271 215.200,262.998 215.200 C 262.848 215.200,262.269 215.560,261.709 216.000 C 261.150 216.440,260.291 216.800,259.800 216.800 C 259.309 216.800,258.450 217.160,257.891 217.600 C 256.884 218.392,256.268 218.400,193.517 218.400 C 144.773 218.400,130.049 218.511,129.680 218.880 C 129.310 219.250,129.222 233.833,129.298 282.580 L 129.395 345.800 129.601 282.600 C 129.714 247.840,129.850 219.363,129.903 219.318 C 129.956 219.273,158.485 219.183,193.300 219.118 L 256.600 219.000 259.000 217.873 C 260.320 217.253,261.940 216.464,262.600 216.120 C 263.920 215.432,268.800 210.831,268.800 210.275 C 268.800 210.083,269.160 209.469,269.600 208.909 C 270.040 208.350,270.401 207.601,270.402 207.246 C 270.404 206.891,270.705 206.060,271.073 205.400 C 274.953 198.425,267.812 183.299,259.723 181.357 C 259.105 181.209,258.060 180.798,257.400 180.444 C 256.316 179.862,250.085 179.781,193.000 179.600 L 129.800 179.400 129.698 128.443 C 129.624 91.117,129.717 77.340,130.047 76.943 C 130.424 76.489,144.426 76.398,215.549 76.390 C 273.751 76.384,301.105 76.248,302.200 75.960 C 303.080 75.729,304.430 75.394,305.200 75.216 C 306.557 74.902,306.538 74.891,304.600 74.848 C 303.500 74.825,302.084 75.074,301.454 75.402 " stroke="none" fill="#545454" fill-rule="evenodd"></path></g></svg>